<?xml version="1.0" encoding="utf-8"?>
<!-- Generator: Adobe Illustrator 24.0.2, SVG Export Plug-In . SVG Version: 6.00 Build 0)  -->
<svg version="1.1" id="Layer_1" xmlns="http://www.w3.org/2000/svg" xmlns:xlink="http://www.w3.org/1999/xlink" x="0px" y="0px"
	 viewBox="0 0 200 200" style="enable-background:new 0 0 200 200;" xml:space="preserve">
<style type="text/css">
	.st0{fill:#FFFFFF;}
</style>
<path class="st0" d="M99.8,119.8c-13.6,0-24.6-11-24.6-24.6c0-13.6,11-24.6,24.6-24.6c13.6,0,24.6,11,24.6,24.6
	C124.4,108.7,113.3,119.8,99.8,119.8z M99.8,72.6c-12.5,0-22.6,10.1-22.6,22.6s10.1,22.6,22.6,22.6s22.6-10.1,22.6-22.6
	S112.2,72.6,99.8,72.6z M99.8,54.3c-22.5,0-40.9,18.3-40.9,40.9S77.2,136,99.8,136s40.9-18.3,40.9-40.9S122.3,54.3,99.8,54.3z
	 M138.6,96.2c-0.3,10-4.3,19-10.7,25.7l-6.1-6.1l-1.4,1.4l6.1,6.1c-6.7,6.4-15.8,10.4-25.7,10.7v-8.6h-2v8.6
	c-10-0.3-19-4.3-25.7-10.7l6.1-6.1l-1.4-1.4l-6.1,6.1c-6.4-6.7-10.4-15.8-10.7-25.7h8.6v-2h-8.6c0.3-10,4.3-19,10.7-25.7l6,6L79,73
	l-6-6c6.7-6.4,15.8-10.4,25.7-10.7v8.5h2v-8.5c10,0.3,19,4.3,25.7,10.7l-6,6l1.4,1.4l6-6c6.4,6.7,10.4,15.8,10.7,25.7h-8.5v2H138.6z
	 M25.4,38.5v17.6h-5.2v26.7h5.2v23.7h-5.2v26.7h5.2v17.6h149.2V38.5H25.4z M22.2,58.1h8.6v22.7h-8.6V58.1z M22.2,108.5h8.6v22.7
	h-8.6V108.5z M172.6,148.9H27.4v-15.6h5.4v-26.7h-5.4V82.9h5.4V56.1h-5.4V40.5h145.2V148.9z M193,20.1H7v149.2h28.5v10.6h26.7v-10.6
	H138v10.6h26.7v-10.6H193V20.1z M60.2,177.9H37.5v-8.6h22.7V177.9z M162.8,177.9H140v-8.6h22.7V177.9z M191,167.3H9V22.1h182V167.3z
	"/>
</svg>
