<?xml version="1.0" encoding="utf-8"?>
<!-- Generator: Adobe Illustrator 24.0.2, SVG Export Plug-In . SVG Version: 6.00 Build 0)  -->
<svg version="1.1" id="Layer_1" xmlns="http://www.w3.org/2000/svg" xmlns:xlink="http://www.w3.org/1999/xlink" x="0px" y="0px"
	 viewBox="0 0 200 200" style="enable-background:new 0 0 200 200;" xml:space="preserve">
<style type="text/css">
	.st0{fill:#FFFFFF;}
</style>
<path class="st0" d="M165.4,156.7H34.6v-94h130.8V156.7z M36.6,154.7h126.8v-90H36.6V154.7z M7,35.1v149.2h186V35.1H7z M173.2,53.5
	H26.8L10.4,37.1h179.1L173.2,53.5z M172.6,55.5v108.4H27.4V55.5H172.6z M25.4,54.9v109.5L9,180.9V38.5L25.4,54.9z M26.8,165.9h146.3
	l16.4,16.4H10.4L26.8,165.9z M174.6,164.5V54.9L191,38.5v142.3L174.6,164.5z M138.9,77.7c-5.3,0-9.6,4.3-9.6,9.6s4.3,9.6,9.6,9.6
	c5.3,0,9.6-4.3,9.6-9.6S144.2,77.7,138.9,77.7z M138.9,94.5c-4,0-7.2-3.2-7.2-7.2s3.2-7.2,7.2-7.2s7.2,3.2,7.2,7.2
	S142.9,94.5,138.9,94.5z M107.2,130.2h28l4.8,16.9h2.5l-5.5-19.4l-28,0L95.3,75.7l-12.1,48.1l-6.7-29l-6.5,28.5l-6.6-28.7
	l-11.2,52.5h2.5l8.8-41.2l5.6,24.3h1.8l5.6-24.5l5.7,24.5H84l11.3-44.8L107.2,130.2z M124.7,28.4L99.2,15.7L73.8,28.4l0.9,1.8
	L99.2,18l24.6,12.3L124.7,28.4z"/>
</svg>
