<?xml version="1.0" encoding="utf-8"?>
<!-- Generator: Adobe Illustrator 24.0.2, SVG Export Plug-In . SVG Version: 6.00 Build 0)  -->
<svg version="1.1" id="Layer_1" xmlns="http://www.w3.org/2000/svg" xmlns:xlink="http://www.w3.org/1999/xlink" x="0px" y="0px"
	 viewBox="0 0 200 200" style="enable-background:new 0 0 200 200;" xml:space="preserve">
<style type="text/css">
	.st0{fill:#FFFFFF;}
</style>
<path class="st0" d="M100,8.6L23.7,48.9V73h152.6V48.9L100,8.6z M100,10.7L172.7,49H27.3L100,10.7z M174.5,71.2h-149V50.8h149V71.2z
	 M132.2,85.7v-6.5h-1.8v4.7h-22.4v-4.7h-1.8v6.5h4.2v55.4h-4.2v6.5h1.8v-4.7h22.4l0,4.7h1.8v-6.5H128V85.7H132.2z M126.3,141.1h-14
	V85.7h14V141.1z M170.5,85.7v-6.5h-1.8v4.7h-22.4v-4.7h-1.8v6.5h4.2v55.4h-4.2v6.5h1.8v-4.7h22.4l0,4.7h1.8v-6.5h-4.2V85.7H170.5z
	 M164.5,141.1h-14V85.7h14V141.1z M10.9,177.7H0.3v13.7h199.4v-13.7h-10.6v-11.9h-12.8v-11.9H23.7v11.9H10.9V177.7z M197.9,179.4
	v10.1H2.1v-10.1H197.9z M25.5,155.6h149v10.1h-149V155.6z M12.7,167.5h174.7v10.1H12.7V167.5z M55.6,85.7v-6.5h-1.8v4.7H31.5v-4.7
	h-1.8v6.5h4.2v55.4h-4.2v6.5h1.8v-4.7h22.4l0,4.7h1.8v-6.5h-4.2V85.7H55.6z M49.6,141.1h-14V85.7h14V141.1z M93.9,85.7v-6.5h-1.8
	v4.7H69.7v-4.7h-1.8v6.5h4.2v55.4h-4.2v6.5h1.8v-4.7h22.4l0,4.7h1.8v-6.5h-4.2V85.7H93.9z M87.9,141.1h-14V85.7h14V141.1z"/>
</svg>
