<?xml version="1.0" encoding="utf-8"?>
<!-- Generator: Adobe Illustrator 24.0.2, SVG Export Plug-In . SVG Version: 6.00 Build 0)  -->
<svg version="1.1" id="Layer_1" xmlns="http://www.w3.org/2000/svg" xmlns:xlink="http://www.w3.org/1999/xlink" x="0px" y="0px"
	 viewBox="0 0 200 200" style="enable-background:new 0 0 200 200;" xml:space="preserve">
<style type="text/css">
	.st0{fill:#FFFFFF;}
</style>
<path class="st0" d="M143.3,18.4H57v62.2h86.3V18.4z M141.3,78.6H59V20.4h82.3V78.6z M125.6,41.5c3.7,0,6.6-3,6.6-6.6
	c0-3.7-3-6.6-6.6-6.6c-3.7,0-6.6,3-6.6,6.6C119,38.5,121.9,41.5,125.6,41.5z M125.6,30.5c2.4,0,4.3,1.9,4.3,4.3c0,2.4-2,4.3-4.3,4.3
	c-2.4,0-4.3-1.9-4.3-4.3C121.3,32.4,123.2,30.5,125.6,30.5z M70.7,74.4h-2.4L76.1,38l4.3,18.8l4.2-18.7l4.4,19.1L97,25.8l9.4,35.2
	l18.3,0l3.8,13.4H126l-3.1-11.1h-18.3l-7.5-28.2L90,63.3h-1.8l-3.4-14.7l-3.4,14.7h-1.8l-3.3-14.6L70.7,74.4z M84.1,129.7
	c0.3-3.5,2.3-15,15.9-15c14.2,0,17.2-11.3,17.8-16h43.5V0.4H38.9v98.3h76.9c-0.6,4.3-3.3,14-15.8,14c-15.3,0-17.6,13.2-17.9,17H31
	v17v19v34H169v-70H84.1z M159.3,95.3l-10-10V13.8l10-10V95.3z M157.9,2.4l-10,10H52.4l-10-10H157.9z M147.3,14.4v70.2H53V14.4H147.3
	z M40.9,3.8l10,10v71.4l-10,10V3.8z M42.4,96.7l10-10h95.5l10,10H118l-2,0c0,0,0,0,0,0H42.4z M135,131.7h15v15h-15V131.7z
	 M135,148.7h15v15h-15V148.7z M101,131.7h15v15h-15V131.7z M101,148.7h15v15h-15V148.7z M101,165.6h15v15h-15V165.6z M84,131.7h15
	v15H84V131.7z M84,148.7h15v15H84V148.7z M84,165.6h15v15H84V165.6z M67,131.7h15v15H67V131.7z M67,148.7h15v15H67V148.7z M67,165.6
	h15v15H67V165.6z M50,131.7h15v15H50V131.7z M50,148.7h15v15H50V148.7z M50,165.6h15v15H50V165.6z M48,197.6H33v-15h15V197.6z
	 M48,180.6H33v-15h15V180.6z M48,163.6H33v-15h15V163.6z M48,146.7H33v-15h15V146.7z M133,197.6H50v-15h83V197.6z M133,180.6h-15
	v-15h15V180.6z M133,163.6h-15v-15h15V163.6z M133,146.7h-15v-15h15V146.7z M150,197.6h-15v-15h15V197.6z M167,197.6h-15v-15h15
	V197.6z M167,180.6h-32v-15h17v-17h15V180.6z M167,146.7h-15v-15h15V146.7z"/>
</svg>
