<?xml version="1.0" encoding="utf-8"?>
<!-- Generator: Adobe Illustrator 24.0.2, SVG Export Plug-In . SVG Version: 6.00 Build 0)  -->
<svg version="1.1" id="Layer_1" xmlns="http://www.w3.org/2000/svg" xmlns:xlink="http://www.w3.org/1999/xlink" x="0px" y="0px"
	 viewBox="0 0 275 200" style="enable-background:new 0 0 275 200;" xml:space="preserve">
<style type="text/css">
	.st0{display:none;}
	.st1{display:inline;fill:#FFFFFF;}
	.st2{fill:#010101;}
</style>
<g class="st0">
	<path class="st1" d="M317.6,86.8c35.9-5.1,63.5-35.9,63.5-73.3c0-22.7-10.2-43-26.3-56.5L317.5-5.8L317.6,86.8L317.6,86.8z"/>
	<path class="st1" d="M296.7,86.8V-5.8l-37.3-37.3c-16.1,13.6-26.3,33.9-26.3,56.5C233.2,50.8,260.8,81.6,296.7,86.8z"/>
	<path class="st1" d="M371.5-50.8c17.2,17.2,26.6,40,26.6,64.3s-9.5,47.1-26.6,64.3c-17.2,17.2-40,26.6-64.3,26.6
		s-47.1-9.5-64.3-26.6s-26.6-40-26.6-64.3s9.5-47.1,26.6-64.3c1.5-1.5,3-2.9,4.5-4.2l-20.8-20.8c-1.5,1.4-3,2.8-4.5,4.3
		c-11,11-19.7,23.9-25.8,38.2c-6.3,14.8-9.5,30.6-9.5,46.8s3.2,32,9.5,46.8c6.1,14.3,14.7,27.2,25.8,38.2c11,11,23.9,19.7,38.2,25.8
		c14.8,6.3,30.6,9.5,46.8,9.5c16.2,0,32-3.2,46.8-9.5c14.3-6.1,27.2-14.7,38.2-25.8c11-11,19.7-23.9,25.8-38.2
		c6.3-14.8,9.5-30.6,9.5-46.8s-3.2-32-9.5-46.8c-6.1-14.3-14.7-27.2-25.8-38.2c-1.5-1.5-3-2.9-4.5-4.3L366.8-55
		C368.5-53.8,370-52.3,371.5-50.8z"/>
	<circle id="red_circle_52_" class="st1" cx="307.2" cy="-69.9" r="37.5"/>
</g>
<path class="st2" d="M15.9,154.2l5.7-18.6h7.5l5.7,18.6l6.4-18.6H49l-11.2,32.3h-5.3l-7.1-22.4l-7,22.4H13L1.8,135.6h7.8L15.9,154.2
	z"/>
<path class="st2" d="M52.9,135.6h7.2v32.3h-7.2V135.6z"/>
<path class="st2" d="M68.1,135.6h7.2v13.3l12.2-13.3h8.9l-12.8,14.3c1.1,1.5,3.2,4.4,6.2,8.6c3,4.2,5.2,7.3,6.7,9.4h-8.4l-9.4-12.7
	l-3.2,3.6v9.1h-7.2C68.1,167.9,68.1,135.6,68.1,135.6z"/>
<path class="st2" d="M100.8,135.6h7.2v32.3h-7.2V135.6z"/>
<path class="st2" d="M144.8,147.6l-8.7,17.6h-4.3l-8.7-17.6v20.3h-7.2v-32.3h9.8l8.3,17.7l8.4-17.7h9.7v32.3h-7.2L144.8,147.6
	L144.8,147.6z"/>
<path class="st2" d="M183.2,135.6v6.4h-16.1v6.6h14.4v6.2h-14.4v6.7h16.5v6.3H160v-32.3L183.2,135.6L183.2,135.6L183.2,135.6
	L183.2,135.6z"/>
<path class="st2" d="M214.8,139.9c3.1,2.8,4.6,6.7,4.6,11.7c0,5-1.5,9-4.5,11.9c-3,2.9-7.6,4.4-13.7,4.4h-11v-32.3h11.4
	C207.3,135.6,211.7,137.1,214.8,139.9z M209.5,159c1.8-1.7,2.6-4.1,2.6-7.3c0-3.2-0.9-5.6-2.6-7.3c-1.8-1.7-4.5-2.5-8.1-2.5h-4v19.6
	h4.6C205.2,161.5,207.8,160.7,209.5,159z"/>
<path class="st2" d="M225.6,135.6h7.2v32.3h-7.2V135.6z"/>
<path class="st2" d="M263.8,167.9l-3-7h-13.5l-3,7h-7.6l13.9-32.3h7l13.9,32.3H263.8z M254,145.2l-4,9.4h8.1L254,145.2z"/>
<g>
	<path class="st2" d="M141.6,95.5c17.3-2.5,30.5-17.3,30.5-35.2c0-10.9-4.9-20.7-12.6-27.2l-17.9,17.9L141.6,95.5L141.6,95.5
		L141.6,95.5z"/>
	<path class="st2" d="M131.5,95.5V51.1l-17.9-17.9c-7.7,6.5-12.6,16.3-12.6,27.2C101,78.2,114.3,93.1,131.5,95.5z"/>
	<path class="st2" d="M167.5,29.4c8.3,8.3,12.8,19.2,12.8,30.9c0,11.7-4.6,22.6-12.8,30.9c-8.3,8.3-19.2,12.8-30.9,12.8
		c-11.7,0-22.6-4.6-30.9-12.8C97.4,83,92.9,72,92.9,60.3s4.6-22.6,12.8-30.9c0.7-0.7,1.4-1.4,2.2-2l-10-10c-0.7,0.7-1.4,1.3-2.2,2.1
		c-5.3,5.3-9.5,11.5-12.4,18.4c-3,7.1-4.6,14.7-4.6,22.5c0,7.8,1.5,15.4,4.6,22.5c2.9,6.9,7.1,13.1,12.4,18.4
		c5.3,5.3,11.5,9.5,18.4,12.4c7.1,3,14.7,4.6,22.5,4.6c7.8,0,15.4-1.5,22.5-4.6c6.9-2.9,13.1-7.1,18.4-12.4
		c5.3-5.3,9.5-11.5,12.4-18.4c3-7.1,4.6-14.7,4.6-22.5c0-7.8-1.5-15.4-4.6-22.5c-2.9-6.9-7.1-13.1-12.4-18.4
		c-0.7-0.7-1.4-1.4-2.2-2.1l-10,10C166,28,166.8,28.7,167.5,29.4z"/>
	<circle id="red_circle_46_" class="st2" cx="136.6" cy="20.2" r="18"/>
</g>
<g>
	<path d="M17.6,197.1c-0.9-0.5-1.6-1.1-2.1-2c-0.5-0.8-0.7-1.8-0.7-2.9c0-1.1,0.3-2,0.8-2.9c0.5-0.8,1.2-1.5,2.1-2
		c0.9-0.5,1.9-0.7,3-0.7c0.9,0,1.7,0.2,2.4,0.5c0.7,0.3,1.3,0.8,1.8,1.3l-1.3,1.2c-0.8-0.8-1.7-1.3-2.9-1.3c-0.7,0-1.4,0.2-2,0.5
		c-0.6,0.3-1,0.8-1.4,1.3s-0.5,1.2-0.5,2c0,0.7,0.2,1.4,0.5,2c0.3,0.6,0.8,1,1.4,1.3c0.6,0.3,1.2,0.5,2,0.5c1.1,0,2.1-0.4,2.9-1.3
		l1.3,1.2c-0.5,0.6-1.1,1-1.9,1.3c-0.7,0.3-1.5,0.5-2.4,0.5C19.4,197.8,18.4,197.6,17.6,197.1z M23.4,183.9l-2.1,2.1h-1.8l-2.1-2.1
		h1.6l1.4,1.1l1.4-1.1H23.4z"/>
	<path d="M41.6,196v1.7h-8.1v-10.8h7.9v1.7h-5.9v2.8h5.2v1.6h-5.2v3L41.6,196L41.6,196L41.6,196z"/>
	<path d="M51.5,197.5c-0.8-0.2-1.4-0.5-1.8-0.9l0.7-1.6c0.4,0.4,1,0.6,1.6,0.9c0.6,0.2,1.3,0.3,1.9,0.3c0.8,0,1.4-0.1,1.8-0.4
		c0.4-0.3,0.6-0.6,0.6-1c0-0.3-0.1-0.6-0.3-0.8c-0.2-0.2-0.5-0.4-0.8-0.5c-0.3-0.1-0.8-0.2-1.4-0.4c-0.8-0.2-1.5-0.4-2-0.6
		c-0.5-0.2-0.9-0.5-1.3-0.9c-0.4-0.4-0.5-1-0.5-1.7c0-0.6,0.2-1.1,0.5-1.6c0.3-0.5,0.8-0.9,1.5-1.2c0.7-0.3,1.5-0.4,2.4-0.4
		c0.7,0,1.3,0.1,1.9,0.2c0.6,0.2,1.2,0.4,1.6,0.7l-0.6,1.6c-0.5-0.3-1-0.5-1.5-0.6c-0.5-0.1-1-0.2-1.5-0.2c-0.8,0-1.4,0.1-1.8,0.4
		c-0.4,0.3-0.6,0.6-0.6,1.1c0,0.3,0.1,0.6,0.3,0.8c0.2,0.2,0.5,0.3,0.8,0.5c0.3,0.1,0.8,0.2,1.4,0.4c0.8,0.2,1.5,0.4,2,0.6
		c0.5,0.2,1,0.5,1.3,0.9c0.4,0.4,0.5,1,0.5,1.7c0,0.6-0.2,1.1-0.5,1.6c-0.3,0.5-0.8,0.9-1.5,1.2c-0.7,0.3-1.5,0.4-2.4,0.4
		C53.1,197.8,52.3,197.7,51.5,197.5z"/>
	<path d="M70.8,193.1l-1.7,1.8v2.8h-2v-10.8h2v5.5l5.3-5.5h2.3l-4.5,4.8l4.8,6h-2.3L70.8,193.1z"/>
	<path d="M91.6,195.2h-5.4l-1.1,2.5h-2.1l4.9-10.8h2l4.9,10.8h-2.1L91.6,195.2z M91,193.6l-2-4.7l-2,4.7H91z M89.7,183.9H92
		l-2.7,2.1h-1.7L89.7,183.9z"/>
	<path d="M121.1,197.7l-2.2-3.2c-0.1,0-0.2,0-0.4,0H116v3.1h-2v-10.8h4.4c0.9,0,1.7,0.2,2.4,0.5c0.7,0.3,1.2,0.8,1.6,1.3
		c0.4,0.6,0.6,1.3,0.6,2.1c0,0.8-0.2,1.5-0.6,2.1c-0.4,0.6-1,1-1.7,1.3l2.5,3.5H121.1L121.1,197.7z M120.3,189.1
		c-0.5-0.4-1.1-0.6-2-0.6H116v4.3h2.3c0.9,0,1.5-0.2,2-0.6c0.5-0.4,0.7-0.9,0.7-1.6C121,190,120.8,189.5,120.3,189.1z"/>
	<path d="M140.1,196v1.7H132v-10.8h7.9v1.7h-5.9v2.8h5.2v1.6h-5.2v3L140.1,196L140.1,196z"/>
	<path d="M156,187.3c0.7,0.3,1.2,0.7,1.6,1.3c0.4,0.6,0.6,1.3,0.6,2.1c0,0.8-0.2,1.5-0.6,2c-0.4,0.6-0.9,1-1.6,1.3
		c-0.7,0.3-1.5,0.5-2.4,0.5h-2.4v3.1h-2v-10.8h4.4C154.5,186.9,155.3,187,156,187.3z M155.5,192.3c0.5-0.4,0.7-0.9,0.7-1.6
		c0-0.7-0.2-1.2-0.7-1.6c-0.5-0.4-1.1-0.6-2-0.6h-2.3v4.3h2.3C154.4,192.9,155,192.7,155.5,192.3z"/>
	<path d="M168.1,196.6c-0.8-0.8-1.2-2-1.2-3.6v-6.1h2v6c0,2.1,0.9,3.2,2.7,3.2c1.8,0,2.7-1.1,2.7-3.2v-6h2v6.1
		c0,1.6-0.4,2.8-1.2,3.6c-0.8,0.8-2,1.3-3.5,1.3C170.1,197.8,169,197.4,168.1,196.6z"/>
	<path d="M195,193c0.4,0.5,0.5,1,0.5,1.7c0,0.9-0.4,1.7-1.1,2.2c-0.7,0.5-1.8,0.8-3.1,0.8h-5.4v-10.8h5.1c1.3,0,2.3,0.3,2.9,0.7
		c0.7,0.5,1,1.2,1,2.1c0,0.5-0.1,1-0.4,1.4c-0.2,0.4-0.6,0.7-1,1C194.2,192.2,194.6,192.6,195,193z M187.9,188.4v3h2.8
		c0.7,0,1.2-0.1,1.6-0.4c0.4-0.2,0.6-0.6,0.6-1.1c0-0.5-0.2-0.9-0.6-1.1c-0.4-0.3-0.9-0.4-1.6-0.4L187.9,188.4L187.9,188.4z
		 M193.5,194.5c0-1-0.8-1.6-2.3-1.6h-3.2v3.1h3.2C192.7,196.1,193.5,195.6,193.5,194.5z"/>
	<path d="M204.4,186.9h2v9.1h5.6v1.7h-7.6V186.9z"/>
	<path d="M220.4,186.9h2v10.8h-2V186.9z"/>
	<path d="M235.9,193.1l-1.7,1.8v2.8h-2v-10.8h2v5.5l5.3-5.5h2.2l-4.5,4.8l4.8,6h-2.3L235.9,193.1z"/>
	<path d="M256.7,195.2h-5.4l-1.1,2.5h-2.1l4.9-10.8h2l4.9,10.8h-2.1L256.7,195.2z M256,193.6l-2-4.7l-2,4.7H256z"/>
</g>
</svg>
