<?xml version="1.0" encoding="utf-8"?>
<!-- Generator: Adobe Illustrator 21.0.0, SVG Export Plug-In . SVG Version: 6.00 Build 0)  -->
<svg version="1.1" id="Vrstva_1" xmlns="http://www.w3.org/2000/svg" xmlns:xlink="http://www.w3.org/1999/xlink" x="0px" y="0px"
	 viewBox="0 0 264.4 86.9" style="enable-background:new 0 0 264.4 86.9;" xml:space="preserve">
<g>
	<g>
		<g>
			<g>
				<g>
					<path d="M254.9,50.5c-1.7-1.2-3.9-1.9-6.5-1.9c-1.1,0-2.1,0.1-3.2,0.3c-1,0.2-2,0.6-2.8,1.1c-0.8,0.5-1.5,1.2-1.9,2
						c-0.5,0.8-0.7,1.9-0.7,3.1c0,1.2,0.4,2.1,1.1,2.9c0.7,0.7,1.6,1.3,2.8,1.8c1.2,0.5,2.5,0.9,4,1.2c1.5,0.3,3,0.6,4.5,1
						c1.5,0.4,3,0.8,4.5,1.3c1.5,0.5,2.8,1.1,4,2c1.2,0.8,2.1,1.9,2.8,3.1c0.7,1.3,1,2.8,1,4.7c0,2-0.5,3.8-1.4,5.2
						c-0.9,1.4-2.1,2.6-3.5,3.6c-1.4,0.9-3,1.6-4.8,2c-1.7,0.4-3.5,0.6-5.3,0.6c-2.2,0-4.2-0.3-6.1-0.8c-1.9-0.5-3.6-1.4-5.1-2.4
						c-1.5-1.1-2.6-2.5-3.4-4.2c-0.8-1.7-1.3-3.7-1.3-6.1h4.8c0,1.6,0.3,3,0.9,4.2c0.6,1.1,1.4,2.1,2.5,2.9c1,0.8,2.2,1.3,3.6,1.7
						c1.4,0.4,2.8,0.5,4.2,0.5c1.1,0,2.3-0.1,3.5-0.3s2.2-0.6,3.1-1.1c0.9-0.5,1.7-1.2,2.3-2.1c0.6-0.9,0.9-2,0.9-3.4
						c0-1.3-0.4-2.4-1-3.2c-0.7-0.8-1.6-1.5-2.8-2c-1.2-0.5-2.5-0.9-4-1.3c-1.5-0.3-3-0.7-4.5-1c-1.5-0.3-3-0.7-4.5-1.2
						c-1.5-0.4-2.8-1-4-1.8c-1.1-0.7-2.1-1.7-2.8-2.9c-0.7-1.2-1.1-2.6-1.1-4.4c0-1.9,0.4-3.6,1.2-5c0.8-1.4,1.8-2.6,3.1-3.5
						c1.3-0.9,2.8-1.6,4.5-2c1.7-0.4,3.4-0.7,5.1-0.7c2,0,3.8,0.2,5.5,0.7c1.7,0.5,3.2,1.2,4.4,2.2c1.3,1,2.3,2.3,3,3.8
						c0.7,1.5,1.1,3.3,1.2,5.5h-4.8C257.6,53.7,256.6,51.7,254.9,50.5"/>
				</g>
				<g>
					<path d="M229.3,45.2v4.3h-21.4v12.2h20V66h-20v13.3h21.6v4.3h-26.7V45.2H229.3z"/>
				</g>
				<g>
					<path d="M190.7,80.8c-2.6,2.5-6.4,3.7-11.2,3.7c-5,0-8.8-1.2-11.6-3.5c-2.8-2.3-4.2-6.1-4.2-11.2V45.2h5.1v24.5
						c0,3.4,0.9,6.1,2.7,7.8c1.8,1.8,4.5,2.7,7.9,2.7c3.3,0,5.8-0.9,7.5-2.7c1.7-1.8,2.6-4.4,2.6-7.8V45.2h5.1v24.5
						C194.6,74.7,193.3,78.3,190.7,80.8"/>
				</g>
				<g>
					<path d="M148.5,82.2c-2.6,1.5-5.6,2.3-9.2,2.3c-3.1,0-5.7-0.5-8-1.6s-4.2-2.6-5.8-4.4c-1.5-1.9-2.7-4-3.5-6.4
						c-0.8-2.4-1.2-5-1.2-7.6c0-2.6,0.4-5.1,1.2-7.6c0.8-2.4,1.9-4.6,3.5-6.4c1.5-1.9,3.5-3.4,5.8-4.5c2.3-1.1,5-1.7,8-1.7
						c3,0,5.7,0.6,8,1.7c2.3,1.1,4.2,2.6,5.8,4.5c1.5,1.9,2.7,4,3.5,6.4c0.8,2.4,1.2,5,1.2,7.6c0,2.9-0.5,5.7-1.5,8.4
						c-1,2.7-2.4,4.9-4.4,6.9l5.1,4l-2.6,3.2L148.5,82.2z M148.2,76.7c1.5-1.5,2.6-3.3,3.3-5.5c0.7-2.2,1.1-4.5,1.1-6.8
						c0-1.9-0.3-3.8-0.8-5.7c-0.5-1.9-1.3-3.6-2.4-5.1c-1.1-1.5-2.5-2.7-4.1-3.6s-3.7-1.4-6-1.4c-2.3,0-4.3,0.5-6,1.4
						c-1.7,0.9-3.1,2.1-4.1,3.6c-1.1,1.5-1.9,3.2-2.4,5.1c-0.5,1.9-0.8,3.8-0.8,5.7c0,1.9,0.3,3.8,0.8,5.7c0.5,1.9,1.3,3.6,2.4,5.1
						c1.1,1.5,2.5,2.7,4.1,3.6c1.7,0.9,3.7,1.4,6,1.4c1.8,0,3.6-0.4,5.3-1.1l-4.3-3.4l2.7-3.1L148.2,76.7z"/>
				</g>
				<g>
					<path d="M109.3,83.6h5.1V45.2h-5.1V83.6z"/>
				</g>
				<g>
					<path d="M74.2,49.5v-4.3h30.7v4.3H92.1v34.1H87V49.5H74.2z"/>
				</g>
				<g>
					<path d="M44.8,45.2L65,76.4h0.1V45.2H70v38.4h-5.6L44.3,52.8h-0.1v30.8h-4.8V45.2H44.8z"/>
				</g>
				<g>
					<path d="M17.6,49.8h0.1l6.4,17.9h-13L17.6,49.8z M15,45.2L0,83.6h5.2l4.3-11.6h16.3L30,83.6h5.7l-15-38.4L15,45.2z"/>
				</g>
			</g>
			<g>
				<g>
					<path d="M104.7,0v4.6h-13v33.9h-5.3V4.6h-13V0H104.7z"/>
				</g>
				<g>
					<path d="M39.6,0h17.5c2.9,0,5.3,0.4,7.1,1.3c3.5,1.6,5.3,4.7,5.3,9.1c0,2.3-0.5,4.2-1.4,5.7c-0.9,1.5-2.3,2.6-4,3.5
						c1.5,0.6,2.6,1.4,3.4,2.4c0.8,1,1.2,2.6,1.3,4.8L69,32c0.1,1.5,0.2,2.6,0.4,3.3c0.3,1.2,0.9,2,1.7,2.4v0.9h-6.4
						c-0.2-0.3-0.3-0.8-0.4-1.3c-0.1-0.5-0.2-1.5-0.3-3l-0.3-6.4c-0.1-2.5-1-4.2-2.7-5.1c-1-0.5-2.5-0.7-4.6-0.7H44.8v16.5h-5.2V0z
						 M56.6,17.6c2.4,0,4.3-0.5,5.6-1.5c1.4-1,2.1-2.7,2.1-5.3c0-2.7-1-4.6-2.9-5.6c-1-0.5-2.4-0.8-4.2-0.8H44.8v13.1H56.6z"/>
				</g>
				<g>
					<path d="M17.2,5.7l5.9,17H11L17.2,5.7z M14.5,0L0,38.5h5.3l4.2-11.5h15.1l4,11.5h5.7L20.4,0H14.5z"/>
				</g>
			</g>
		</g>
	</g>
</g>
</svg>
