<?xml version="1.0" encoding="utf-8"?>
<!-- Generator: Adobe Illustrator 24.0.2, SVG Export Plug-In . SVG Version: 6.00 Build 0)  -->
<svg version="1.1" id="Layer_1" xmlns="http://www.w3.org/2000/svg" xmlns:xlink="http://www.w3.org/1999/xlink" x="0px" y="0px"
	 viewBox="0 0 630 200" style="enable-background:new 0 0 630 200;" xml:space="preserve">
<g>
	<path d="M-0.3,2.2v28.8c0,17.4,13.2,29.6,31.4,29.6c18.3,0,31.4-12.3,31.4-29.6V2.2H46.5v28.6c0,9.2-6.5,15.1-15.4,15.1
		c-8.9,0-15.4-5.8-15.4-15.1V2.2H-0.3L-0.3,2.2z"/>
	<path d="M-0.3,141.5v28.8c0,17.4,13.2,29.6,31.4,29.6c18.3,0,31.4-12.3,31.4-29.6v-28.8H46.5v28.6c0,9.2-6.5,15.1-15.4,15.1
		c-8.9,0-15.4-5.8-15.4-15.1v-28.6H-0.3L-0.3,141.5z"/>
	<path d="M91,98.2V86.3h24.8c3.2,0,5.6,2.6,5.6,6c0,3.4-2.4,5.9-5.6,5.9H91L91,98.2z M121,129.9h18.5l-11.8-20.3
		c6.2-3.4,10.1-9.8,10.1-17.4c0-11.4-8.6-20-20.6-20H74.9v57.6H91v-17.7h20.4L121,129.9L121,129.9z M15.7,99.1V86.3h24.4
		c3.5,0,6,2.7,6,6.4c0,3.6-2.6,6.3-6,6.3H15.7L15.7,99.1z M-0.3,129.9h16.1v-16.9h25.8c12.2,0,21-8.8,21-20.3
		c0-11.6-8.8-20.4-21-20.4H-0.3V129.9L-0.3,129.9z"/>
	<polygon points="137.8,59.9 121.8,59.9 121.8,29.7 106.4,50.7 91,29.7 91,59.9 74.9,59.9 74.9,2.2 89.8,2.2 106.4,24.7 123,2.2 
		137.8,2.2 137.8,59.9 	"/>
	<polygon points="137.8,199.2 121.8,199.2 121.8,169 106.4,190 91,169 91,199.2 74.9,199.2 74.9,141.5 89.8,141.5 106.4,164 
		123,141.5 137.8,141.5 137.8,199.2 	"/>
	<path d="M165.3,129.9h8.5l8.6-22.4h-6.7l-5.9,15.8l-5.9-15.8h-7.1L165.3,129.9L165.3,129.9z M197.4,129.9h7.3v-9.3h7.9
		c6.1,0,10.6-4.5,10.6-10.4c0-5.9-4.5-10.4-10.6-10.4h-15.2V129.9L197.4,129.9z M204.7,114.3v-8.1h7c2.2,0,4,1.8,4,4
		c0,2.2-1.8,4-4,4H204.7L204.7,114.3z M226.1,129.9h6.7v-12.4c0.1-3.2,3.1-4.7,7.4-4v-6.2c-3-0.6-5.8,0.7-7.5,3.1l-1-2.8h-5.6V129.9
		L226.1,129.9z M261,129.9h5.6v-22.4H261l-1,3.2c-1.8-2.3-4.4-3.6-7.5-3.6c-5.8,0-10,4.9-10,11.6c0,6.7,4.2,11.6,10,11.6
		c3.1,0,5.7-1.4,7.5-3.6L261,129.9L261,129.9z M249.3,118.7c0-3.4,2.2-5.9,5.3-5.9c3,0,5.2,2.4,5.4,5.7v0.3c0,3.4-2.3,5.9-5.4,5.9
		C251.5,124.6,249.3,122.1,249.3,118.7L249.3,118.7z M270.9,129.9H290v-5.7h-10.5l10.5-10.9v-5.7h-19.1v5.7h10.5l-10.5,10.9V129.9
		L270.9,129.9z M292.7,118.7c0,6.7,5,11.6,12,11.6c5.1,0,8.9-2.7,10.3-6.1l-6-1.5c-0.8,1.4-2.1,2.3-4.2,2.3c-2.6,0-4.6-1.7-5.2-4.2
		h17c1-7.8-4.3-13.8-11.8-13.8C297.7,107.1,292.7,112,292.7,118.7L292.7,118.7z M299.6,116c0.7-2.1,2.6-3.6,5.1-3.6
		c2.6,0,4.4,1.6,5,3.6H299.6L299.6,116z"/>
	<path d="M170.2,81.5c6.5,0,11.1-4.4,11.1-10.5V58.8h-6.7v12.7c0,2.7-1.8,4.4-4.5,4.4c-2.6,0-4.5-1.7-4.5-4.4V58.8h-6.7V71
		C159.1,77.2,163.8,81.5,170.2,81.5L170.2,81.5z M186.7,81.1h6.7V67.6c0-2.4,1.5-3.8,3.6-3.8c2.1,0,3.6,1.4,3.6,3.9v13.3h6.7V67.8
		c0-2.6,1.5-3.9,3.6-3.9c2.1,0,3.6,1.4,3.6,3.9v13.3h6.7V67c0-5.4-3.5-8.7-8.5-8.7c-3,0-5.4,1.2-6.9,3.3c-1.4-2.1-3.7-3.3-6.4-3.3
		c-2.6,0-4.8,1.1-6.2,2.9l-0.9-2.5h-5.6V81.1L186.7,81.1z M233.6,56h7.3l4.3-7.3h-5.1l-2.7,3.8l-2.7-3.8h-5.3L233.6,56L233.6,56z
		 M225.4,70c0,6.7,5,11.6,12,11.6c5.1,0,8.9-2.7,10.3-6.1l-6-1.5c-0.8,1.4-2.1,2.3-4.3,2.3c-2.6,0-4.6-1.7-5.2-4.2h17
		c1-7.8-4.2-13.8-11.8-13.8C230.4,58.3,225.4,63.2,225.4,70L225.4,70z M232.3,67.3c0.7-2.1,2.6-3.6,5.1-3.6c2.6,0,4.4,1.6,5,3.6
		H232.3L232.3,67.3z M253.5,81.1h6.7V49.4h-6.7V81.1L253.5,81.1z M264.7,70c0,6.7,5,11.6,12,11.6c5.1,0,8.9-2.7,10.3-6.1l-6-1.5
		c-0.8,1.4-2.1,2.3-4.3,2.3c-2.6,0-4.6-1.7-5.2-4.2h17c1-7.8-4.2-13.8-11.8-13.8C269.7,58.3,264.7,63.2,264.7,70L264.7,70z
		 M271.6,67.3c0.7-2.1,2.6-3.6,5.1-3.6c2.6,0,4.4,1.6,5,3.6H271.6L271.6,67.3z M292,70c0,6.7,5,11.6,12,11.6c4.8,0,9.4-2.5,10.6-7.3
		l-6.4-1.4c-0.7,1.9-2.2,3-4.3,3c-3,0-5.1-2.4-5.1-5.9c0-3.4,2.1-5.9,5.1-5.9c2.1,0,3.6,1.1,4.3,3l6.4-1.4
		c-1.2-4.8-5.9-7.3-10.6-7.3C296.9,58.3,292,63.2,292,70L292,70z M318.7,81.1h6.7v-5.1l2.4-2.6l5.9,7.7h8.4l-9.7-12.7l9-9.7h-8.5
		l-7.5,8.5V49.4h-6.7V81.1L318.7,81.1z M342.6,70c0,6.7,5,11.6,12,11.6c7,0,12-4.9,12-11.6c0-6.8-5-11.6-12-11.6
		C347.6,58.3,342.6,63.2,342.6,70L342.6,70z M349.5,70c0-3.4,2.1-5.9,5.1-5.9c3,0,5.1,2.5,5.1,5.9c0,3.4-2.1,5.9-5.1,5.9
		C351.6,75.8,349.5,73.3,349.5,70L349.5,70z M371,89.7h6.7V78c1.8,2.2,4.4,3.6,7.5,3.6c5.8,0,10-4.9,10-11.6c0-6.8-4.2-11.6-10-11.6
		c-3.1,0-5.7,1.4-7.5,3.6l-1-3.2H371V89.7L371,89.7z M377.7,70v-0.3c0.1-3.3,2.4-5.7,5.4-5.7c3.1,0,5.3,2.5,5.3,5.9
		c0,3.4-2.2,5.9-5.3,5.9C380,75.8,377.7,73.3,377.7,70L377.7,70z M399.8,81.1h6.7V68.7c0.1-3.2,3.1-4.7,7.4-4v-6.2
		c-3-0.6-5.8,0.7-7.5,3.1l-1-2.8h-5.6V81.1L399.8,81.1z M422.9,51.8c0,2.8,2.4,5,5.5,5s5.5-2.1,5.5-5c0-2.8-2.4-4.9-5.5-4.9
		S422.9,49,422.9,51.8L422.9,51.8z M426.6,51.8c0-1.2,0.8-2.1,1.8-2.1c1,0,1.8,0.9,1.8,2.1c0,1.2-0.8,2.2-1.8,2.2
		C427.4,53.9,426.6,53,426.6,51.8L426.6,51.8z M428.4,81.5c6.5,0,11.1-4.4,11.1-10.5V58.8h-6.7v12.7c0,2.7-1.8,4.4-4.5,4.4
		c-2.6,0-4.5-1.7-4.5-4.4V58.8h-6.7V71C417.3,77.2,422,81.5,428.4,81.5L428.4,81.5z M444.9,81.1h6.7V67.6c0-2.4,1.5-3.8,3.6-3.8
		c2.1,0,3.6,1.4,3.6,3.9v13.3h6.7V67.8c0-2.6,1.5-3.9,3.6-3.9c2.1,0,3.6,1.4,3.6,3.9v13.3h6.7V67c0-5.4-3.5-8.7-8.5-8.7
		c-3,0-5.4,1.2-6.9,3.3c-1.4-2.1-3.7-3.3-6.4-3.3c-2.6,0-4.8,1.1-6.2,2.9l-0.9-2.5h-5.6V81.1L444.9,81.1z M488.3,89.7h6.7l11.9-31
		h-6.7l-5.9,15.8l-5.9-15.8h-7.1l9.4,24.7L488.3,89.7L488.3,89.7z M508.5,75.4c0.2,3.7,3.8,6.2,10.2,6.2c6.8,0,10.6-3.4,10.6-7.1
		c0-9.2-14.2-5.9-14.2-9.4c0-1.1,1.3-1.7,3.4-1.7c2.4,0,3.9,0.6,4.1,2.5l6.3-1.4c-0.2-3.2-3.8-6.2-10.2-6.2s-10,3.4-10,7.1
		c0,9.3,14.2,6,14.2,9.4c0,1.2-1.4,1.7-4,1.7c-2.4,0-3.9-0.5-4.1-2.5L508.5,75.4L508.5,75.4z M533.9,81.1h6.7V49.4h-6.7V81.1
		L533.9,81.1z M545,70c0,6.7,5,11.6,12,11.6c7,0,12-4.9,12-11.6c0-6.8-5-11.6-12-11.6C550,58.3,545,63.2,545,70L545,70z M551.9,70
		c0-3.4,2.1-5.9,5.1-5.9c3,0,5.1,2.5,5.1,5.9c0,3.4-2.1,5.9-5.1,5.9C554,75.8,551.9,73.3,551.9,70L551.9,70z M578.6,81.1h8.5
		l8.6-22.4h-6.7L583,74.5l-5.9-15.8H570L578.6,81.1L578.6,81.1z M615.3,81.1h5.6V58.8h-5.6l-1,3.2c-1.8-2.3-4.4-3.6-7.5-3.6
		c-5.8,0-10,4.9-10,11.6c0,6.7,4.2,11.6,10,11.6c3.1,0,5.7-1.4,7.5-3.6L615.3,81.1L615.3,81.1z M603.6,70c0-3.4,2.2-5.9,5.3-5.9
		c3,0,5.2,2.4,5.4,5.7V70c0,3.4-2.3,5.9-5.4,5.9S603.6,73.3,603.6,70L603.6,70z M605.8,56h5.1l5.9-7.3h-7.2L605.8,56L605.8,56z"/>
	<path d="M168.5,32.3h8.6l11.8-30.1h-7.6L172.9,24l-8.4-21.7h-7.8L168.5,32.3L168.5,32.3z M195.6,40.9h6.7l11.9-31h-6.7l-5.9,15.8
		L195.7,10h-7.1l9.4,24.7L195.6,40.9L195.6,40.9z M215.3,26.6c0.2,3.7,3.8,6.2,10.2,6.2c6.8,0,10.6-3.4,10.6-7.1
		c0-9.2-14.2-5.9-14.2-9.4c0-1.1,1.3-1.7,3.4-1.7c2.4,0,3.9,0.6,4.1,2.5l6.3-1.4c-0.2-3.2-3.8-6.2-10.2-6.2c-6.4,0-10,3.4-10,7.1
		c0,9.3,14.2,6,14.2,9.4c0,1.2-1.4,1.7-4,1.7c-2.4,0-3.9-0.5-4.1-2.5L215.3,26.6L215.3,26.6z M238.8,21.2c0,6.7,5,11.6,12,11.6
		c7,0,12-4.9,12-11.6c0-6.8-5-11.6-12-11.6C243.8,9.5,238.8,14.4,238.8,21.2L238.8,21.2z M245.7,21.2c0-3.4,2.1-5.9,5.1-5.9
		c3,0,5.1,2.5,5.1,5.9c0,3.4-2.1,5.9-5.1,5.9C247.8,27,245.7,24.6,245.7,21.2L245.7,21.2z M266.7,32.3h6.7v-5.1l2.4-2.6l5.9,7.7h8.4
		l-9.7-12.7l9-9.7h-8.5l-7.5,8.5V0.6h-6.7V32.3L266.7,32.3z M308.8,32.3h5.6V10h-5.6l-1,3.2c-1.8-2.3-4.4-3.6-7.5-3.6
		c-5.8,0-10,4.9-10,11.6c0,6.7,4.2,11.6,10,11.6c3.1,0,5.7-1.4,7.5-3.6L308.8,32.3L308.8,32.3z M297.1,21.2c0-3.4,2.2-5.9,5.3-5.9
		c3,0,5.2,2.4,5.4,5.7v0.3c0,3.4-2.3,5.9-5.4,5.9C299.3,27,297.1,24.6,297.1,21.2L297.1,21.2z M299.3,7.3h5.1l5.9-7.3h-7.2
		L299.3,7.3L299.3,7.3z M338,7.3h7.3l4.3-7.3h-5.1l-2.7,3.8L339,0h-5.3L338,7.3L338,7.3z M331.4,26.6c0.2,3.7,3.8,6.2,10.2,6.2
		c6.8,0,10.6-3.4,10.6-7.1c0-9.2-14.2-5.9-14.2-9.4c0-1.1,1.3-1.7,3.4-1.7c2.4,0,3.9,0.6,4.1,2.5l6.3-1.4c-0.2-3.2-3.8-6.2-10.2-6.2
		c-6.4,0-10,3.4-10,7.1c0,9.3,14.2,6,14.2,9.4c0,1.2-1.4,1.7-4,1.7c-2.4,0-3.9-0.5-4.1-2.5L331.4,26.6L331.4,26.6z M356.2,32.3h6.7
		v-5.1l2.4-2.6l5.9,7.7h8.4l-9.7-12.7l9-9.7h-8.5l-7.5,8.5V0.6h-6.7V32.3L356.2,32.3z M379.5,21.2c0,6.7,5,11.6,12,11.6
		c7,0,12-4.9,12-11.6c0-6.8-5-11.6-12-11.6C384.5,9.5,379.5,14.4,379.5,21.2L379.5,21.2z M386.4,21.2c0-3.4,2.1-5.9,5.1-5.9
		c3,0,5.1,2.5,5.1,5.9c0,3.4-2.1,5.9-5.1,5.9C388.5,27,386.4,24.6,386.4,21.2L386.4,21.2z M407.4,32.3h6.7V0.6h-6.7V32.3L407.4,32.3
		z M436.6,32.3h5.6V10h-5.6l-1,3.2c-1.8-2.3-4.4-3.6-7.5-3.6c-5.8,0-10,4.9-10,11.6c0,6.7,4.2,11.6,10,11.6c3.1,0,5.7-1.4,7.5-3.6
		L436.6,32.3L436.6,32.3z M424.9,21.2c0-3.4,2.2-5.9,5.3-5.9c3,0,5.2,2.4,5.4,5.7v0.3c0,3.4-2.3,5.9-5.4,5.9
		C427.1,27,424.9,24.6,424.9,21.2L424.9,21.2z"/>
</g>
</svg>
