<svg xmlns="http://www.w3.org/2000/svg" xmlns:xlink="http://www.w3.org/1999/xlink" version="1.1" width="262.772pt" height="100.913pt" viewBox="0 0 262.772 100.913">
<defs>
<clipPath id="clip_0">
<path transform="matrix(1,0,0,-1,0,100.913)" d="M0 100.913H262.772V0H0Z"/>
</clipPath>
</defs>
<g id="layer_1" data-name="Vrstva 1">
<g clip-path="url(#clip_0)">
<path transform="matrix(1,0,0,-1,0,100.913)" d="M101.075 69.424H105.773L109.255 58.326H109.299L112.779 69.424H117.477V54.781H114.667V66.863H114.623L110.684 54.781H107.873L103.931 66.863 103.887 66.82V54.781H101.075Z" fill="#231f20"/>
<path transform="matrix(1,0,0,-1,0,100.913)" d="M121.956 69.424H124.893V54.781007H121.956Z" fill="#231f20"/>
<path transform="matrix(1,0,0,-1,0,100.913)" d="M129.38 69.424H132.989L138.569 58.475H138.606V69.424H141.419V54.781H137.833L132.232 65.73H132.195V54.781H129.38Z" fill="#231f20"/>
<path transform="matrix(1,0,0,-1,0,100.913)" d="M146.11 69.424H149.046V54.781007H146.11Z" fill="#231f20"/>
<path transform="matrix(1,0,0,-1,0,100.913)" d="M161.187 66.738C160.261 67.135 159.235 67.367 158.208 67.367 157.2 67.367 155.899 66.928 155.899 65.332 155.899 62.793 162.317 63.865 162.317 58.955 162.317 55.748 159.782 54.533 156.821 54.533 155.229 54.533 154.519 54.736 153.071 55.096L153.343 57.738C154.351 57.193 155.501 56.838 156.657 56.838 157.765 56.838 159.261 57.402 159.261 58.725 159.261 61.516 152.839 60.361 152.839 65.207 152.839 68.479 155.378 69.676 157.954 69.676 159.218 69.676 160.388 69.506 161.46 69.15Z" fill="#231f20"/>
<path transform="matrix(1,0,0,-1,0,100.913)" d="M166.495 67.117H162.442V69.424H173.483V67.117H169.431V54.781H166.495Z" fill="#231f20"/>
<path transform="matrix(1,0,0,-1,0,100.913)" d="M175.349 69.424H183.995V67.117H178.286V63.506H183.515V61.201H178.286V57.088H184.042V54.781H175.349Z" fill="#231f20"/>
<path transform="matrix(1,0,0,-1,0,100.913)" d="M190.388 63.17H191.354C192.802 63.17 194.456 63.381 194.456 65.207 194.456 66.969 192.821 67.117 191.354 67.117H190.388ZM187.454 69.424H190.618C193.765 69.424 197.521 69.527 197.521 65.459 197.521 63.738 196.366 62.311 194.501 62.063V62.018C195.294 61.957 195.759 61.16 196.054 60.508L198.399 54.781H195.13L193.366 59.354C192.946 60.445 192.571 60.865 191.331 60.865H190.388V54.781H187.454Z" fill="#231f20"/>
<path transform="matrix(1,0,0,-1,0,100.913)" d="M208.669 66.738C207.745 67.135 206.716 67.367 205.688 67.367 204.679 67.367 203.38 66.928 203.38 65.332 203.38 62.793 209.802 63.865 209.802 58.955 209.802 55.748 207.263 54.533 204.304 54.533 202.71 54.533 201.995 54.736 200.55 55.096L200.821 57.738C201.829 57.193 202.983 56.838 204.134 56.838 205.247 56.838 206.739 57.402 206.739 58.725 206.739 61.516 200.319 60.361 200.319 65.207 200.319 68.479 202.854 69.676 205.437 69.676 206.696 69.676 207.868 69.506 208.938 69.15Z" fill="#231f20"/>
<path transform="matrix(1,0,0,-1,0,100.913)" d="M213.983 67.117H209.925V69.424H220.972V67.117H216.919V54.781H213.983Z" fill="#231f20"/>
<path transform="matrix(1,0,0,-1,0,100.913)" d="M219.581 69.424H222.724L226.479 57.93H226.524L230.235 69.424H233.149L228.22 54.781H224.614Z" fill="#231f20"/>
<path transform="matrix(1,0,0,-1,0,100.913)" d="M241.651 56.838C244.651 56.838 245.765 59.5 245.765 62.145 245.765 64.723 244.567 67.367 241.651 67.367 238.739 67.367 237.542 64.723 237.542 62.145 237.542 59.5 238.651 56.838 241.651 56.838M241.651 69.676C246.247 69.676 248.825 66.566 248.825 62.145 248.825 57.721 246.286 54.533 241.651 54.533 236.956 54.533 234.478 57.656 234.478 62.145 234.478 66.631 236.993 69.676 241.651 69.676" fill="#231f20"/>
<path transform="matrix(1,0,0,-1,0,100.913)" d="M101.082 50.146H104.02V43.854L109.305 50.146H112.916L106.896 43.246 113.166 35.506H109.324L104.065 42.301H104.02V35.506H101.082Z" fill="#231f20"/>
<path transform="matrix(1,0,0,-1,0,100.913)" d="M114.971 50.146H117.906V41.693C117.906 39.199 118.705 37.563 120.951 37.563 123.192 37.563 123.986 39.199 123.986 41.693V50.146H126.924V40.793C126.924 36.869 124.701 35.256 120.951 35.256 117.192 35.256 114.971 36.869 114.971 40.793Z" fill="#231f20"/>
<path transform="matrix(1,0,0,-1,0,100.913)" d="M131.102 50.146H134.04V37.813H139.554V35.506H131.102Z" fill="#231f20"/>
<path transform="matrix(1,0,0,-1,0,100.913)" d="M142.017 47.84H137.964V50.146H149.009V47.84H144.954V35.506H142.017Z" fill="#231f20"/>
<path transform="matrix(1,0,0,-1,0,100.913)" d="M150.772 50.146H153.71V41.693C153.71 39.199 154.501 37.563 156.745 37.563 158.991 37.563 159.79 39.199 159.79 41.693V50.146H162.726V40.793C162.726 36.869 160.501 35.256 156.745 35.256 152.993 35.256 150.772 36.869 150.772 40.793Z" fill="#231f20"/>
<path transform="matrix(1,0,0,-1,0,100.913)" d="M169.704 43.895H170.665C172.114 43.895 173.772 44.105 173.772 45.932 173.772 47.693 172.136 47.84 170.665 47.84H169.704ZM166.767 50.146H169.935C173.081 50.146 176.833 50.252 176.833 46.184 176.833 44.463 175.677 43.035 173.813 42.787V42.742C174.614 42.682 175.071 41.883 175.366 41.232L177.716 35.506H174.442L172.683 40.078C172.263 41.17 171.886 41.588 170.646 41.588H169.704V35.506H166.767Z" fill="#231f20"/>
<path transform="matrix(1,0,0,-1,0,100.913)" d="M182.94 41.295 177.591 50.146H181.032L184.501 44.002 188.022 50.146H191.13L185.88 41.295V35.506H182.94Z" fill="#231f20"/>
<path transform="matrix(1,0,0,-1,0,100.913)" d="M81.487 36.764C76.142 24.496 64.043 16.57 50.663 16.57 44.047 16.57 37.646 18.49 32.153 22.119 22.696 28.371 17.05 38.861 17.05 50.182 17.05 51.229 17.1 52.285 17.191 53.32 18.508 67.504 28.676 79.352 42.503 82.799 45.156 83.459 47.9 83.795 50.663 83.795 62.999 83.795 74.322 77.055 80.217 66.201 82.872 61.316 84.274 55.777 84.274 50.182 84.274 45.518 83.336 41.004 81.487 36.764M82.352 67.363C76.031 78.998 63.887 86.223 50.663 86.223 47.703 86.223 44.761 85.863 41.914 85.152 27.09 81.457 16.185 68.754 14.775 53.543H14.776C14.672 52.438 14.621 51.307 14.621 50.182 14.621 38.043 20.675 26.797 30.814 20.096 36.708 16.201 43.569 14.143 50.663 14.143 65.006 14.143 77.981 22.643 83.716 35.795 85.697 40.342 86.703 45.182 86.703 50.182 86.703 56.182 85.196 62.123 82.352 67.363" fill="#231f20"/>
<path transform="matrix(1,0,0,-1,0,100.913)" d="M66.747 39.025C64.931 36.42 62.538 34.336 59.812 32.896L56.005 40.176C54.354 39.311 52.564 38.873 50.684 38.873 44.346 38.873 39.19 44.029 39.19 50.367L39.265 51.664 37.21 51.895C37.146 51.363 37.108 50.822 37.108 50.275 37.108 43.898 41.651 38.434 47.91 37.285L47.478 30.906C46.85 31.014 46.23 31.15 45.621 31.316 45.387 31.381 45.162 31.469 44.93 31.541 44.561 31.656 44.188 31.766 43.826 31.902 43.569 32 43.324 32.121 43.072 32.229 42.748 32.369 42.42 32.498 42.104 32.654 41.851 32.779 41.608 32.926 41.36 33.063 41.061 33.227 40.757 33.383 40.468 33.563 40.223 33.713 39.991 33.883 39.754 34.045 39.476 34.234 39.193 34.416 38.926 34.619 38.694 34.793 38.478 34.986 38.255 35.172 37.998 35.383 37.736 35.59 37.491 35.814 37.275 36.012 37.075 36.225 36.869 36.432 36.635 36.664 36.396 36.895 36.174 37.141 35.976 37.359 35.794 37.592 35.606 37.82 35.433 38.029 35.247 38.229 35.083 38.445L35.073 38.441 32.532 37.293C30.712 39.842 29.576 42.508 29.017 45.4 28.743 46.832 28.604 48.32 28.604 49.873 28.604 59.055 34.357 67.449 42.921 70.762L43.698 68.746C36.151 65.9 30.769 58.609 30.769 50.078 30.769 47.488 31.189 45.152 32.155 42.775L32.56 42.902 35.563 43.857C34.772 45.809 34.354 47.953 34.354 50.078 34.354 58.965 41.477 66.219 50.314 66.43 50.449 66.436 50.58 66.441 50.716 66.441 55.97 66.441 60.941 63.887 64.01 59.613L66.972 61.639C66.97 61.641 66.967 61.643 66.963 61.646L73.015 65.918C67.9 73.164 59.555 77.492 50.693 77.492 35.637 77.492 23.386 65.24 23.386 50.182 23.386 48.201 23.6 46.223 24.02 44.303 26.747 31.887 37.963 22.875 50.693 22.875 59.623 22.875 68.007 27.254 73.116 34.59Z" fill="#231f20"/>
</g>
</g>
</svg>
